# xmcd
#
# Track frame offsets: 
#        150
#        17911
#        27640
#        41826
#        56241
#        69126
#        80023
#        92568
#        105757
#        115463
#        127523
#        139172
#        152098
#        161575
#        171041
#        182835
#        195347
#        205435
#
# Disc length: 2886 seconds
#
# Revision: 0
# Processed by: cddbd v1.5.2PL0 Copyright (c) Steve Scherf et al.
# Submitted via: ExactAudioCopyFreeDBPlugin 1.0
#
DISCID=ef0b4412
DTITLE=Hank Snow - Milestones Of A Country Legend
DYEAR=1900
DGENRE=Country
TTITLE0=Wedding Bells
TTITLE1=Loose Talk
TTITLE2=I Almost Lost My Mind
TTITLE3=Sing Me a Song of the Island
TTITLE4=Memories Are Made of This
TTITLE5=These Tears Are Not for You
TTITLE6=Singing the Blues
TTITLE7=My Life with You
TTITLE8=Poison Love
TTITLE9=Among My Souvenirs
TTITLE10=Born to Lose
TTITLE11=It´s Been so Long, Darling
TTITLE12=For Now and Always
TTITLE13=That Crazy Mambo Thing
TTITLE14=The Next Voice You Hear
TTITLE15=Yellow Rose
TTITLE16=Would You Mind
TTITLE17=Cryin´, Prayin´,Waitin´,Hopin´
EXTD=
EXTT0=
EXTT1=
EXTT2=
EXTT3=
EXTT4=
EXTT5=
EXTT6=
EXTT7=
EXTT8=
EXTT9=
EXTT10=
EXTT11=
EXTT12=
EXTT13=
EXTT14=
EXTT15=
EXTT16=
EXTT17=
PLAYORDER=
